<svg width="102" height="24" viewBox="0 0 102 24" fill="none" xmlns="http://www.w3.org/2000/svg">
<path d="M5.63086 8.30859C5.95428 8.30859 6.26439 8.43653 6.49316 8.66406C6.72197 8.89181 6.85059 9.20136 6.85059 9.52344V11.7188C6.85072 13.017 7.36969 14.2617 8.29199 15.1797C9.21433 16.0977 10.4652 16.6133 11.7695 16.6133H13.9736C14.2972 16.6134 14.6071 16.742 14.8359 16.9697C15.0647 17.1975 15.1933 17.5061 15.1934 17.8281V22.2188C15.1933 22.3782 15.1619 22.5363 15.1006 22.6836C15.0393 22.8309 14.9492 22.9644 14.8359 23.0771C14.7226 23.1899 14.5885 23.2798 14.4404 23.3408C14.2925 23.4018 14.1338 23.4326 13.9736 23.4326H9.5625C9.40234 23.4326 9.24368 23.4018 9.0957 23.3408C8.94766 23.2798 8.81349 23.1899 8.7002 23.0771C8.58695 22.9644 8.49684 22.8309 8.43555 22.6836C8.37427 22.5363 8.34274 22.3782 8.34277 22.2188V20.0234C8.34249 18.7252 7.82367 17.4795 6.90137 16.5615C5.9792 15.6439 4.72875 15.1282 3.4248 15.1279H1.2207C0.897109 15.1279 0.586277 15.0002 0.357422 14.7725C0.128551 14.5447 0 14.2353 0 13.9131V9.52344C-6.79674e-09 9.36407 0.0315425 9.20584 0.0927734 9.05859C0.154109 8.91123 0.244092 8.77683 0.357422 8.66406C0.470611 8.55145 0.605089 8.46236 0.75293 8.40137C0.900994 8.34036 1.06045 8.30855 1.2207 8.30859H5.63086ZM13.9746 0.00390625C14.298 0.00397311 14.6081 0.131862 14.8369 0.359375C15.0658 0.587185 15.1943 0.896578 15.1943 1.21875V3.41211C15.1944 4.71037 15.7135 5.95598 16.6357 6.87402C17.5579 7.7918 18.8083 8.30733 20.1123 8.30762H22.3164C22.4767 8.30738 22.636 8.33853 22.7842 8.39941C22.9324 8.46034 23.0672 8.5503 23.1807 8.66309C23.2941 8.77586 23.3839 8.9102 23.4453 9.05762C23.5067 9.20499 23.5381 9.36294 23.5381 9.52246V13.9121C23.5381 14.2342 23.4104 14.5437 23.1816 14.7715C22.9528 14.9993 22.642 15.1269 22.3184 15.127H17.9082C17.5845 15.127 17.2738 14.9993 17.0449 14.7715C16.8161 14.5437 16.6875 14.2343 16.6875 13.9121V11.7188C16.6874 10.4207 16.1692 9.17578 15.2471 8.25781C14.3249 7.33983 13.0737 6.82343 11.7695 6.82324H9.56348C9.40332 6.8232 9.24464 6.79246 9.09668 6.73145C8.94871 6.67042 8.81443 6.5805 8.70117 6.46777C8.58788 6.35497 8.49782 6.22062 8.43652 6.07324C8.37531 5.92595 8.3437 5.7678 8.34375 5.6084V1.21875C8.3437 1.05925 8.37524 0.901277 8.43652 0.753906C8.49782 0.606528 8.58788 0.47218 8.70117 0.359375C8.81434 0.246784 8.94887 0.157671 9.09668 0.0966797C9.24464 0.0356645 9.40332 0.00394335 9.56348 0.00390625H13.9746Z" fill="#171717"/>
<path fill-rule="evenodd" clip-rule="evenodd" d="M52.5918 4.57724C53.4084 4.55576 54.221 4.70006 54.9795 5.00205C55.7381 5.30408 56.4264 5.75783 57.0029 6.33408V4.85166H59.7607V23.4366H57.0029V17.0929C56.4265 17.669 55.7379 18.1219 54.9795 18.4239C54.221 18.7259 53.4084 18.8712 52.5918 18.8497C48.4005 18.8497 45.4219 15.8848 45.4219 11.713C45.422 7.51368 48.4006 4.57724 52.5918 4.57724ZM64.6416 13.086C64.6416 15.0074 65.8825 16.3253 67.8125 16.3253C69.7703 16.3251 70.9834 15.0073 70.9834 13.086V4.85263H73.7402V18.5753H70.9824V17.3409C70.532 17.8303 69.9815 18.2183 69.3682 18.4786C68.7548 18.7389 68.0924 18.866 67.4258 18.8507C64.1169 18.8507 61.8828 16.4621 61.8828 13.086L61.8838 4.85263H64.6416V13.086ZM38.6221 4.57627C40.2011 4.57628 41.4742 4.97342 42.4404 5.76767C42.9197 6.16479 43.3067 6.66106 43.5742 7.22178C43.8417 7.78258 43.983 8.39494 43.9893 9.01572H41.1172C41.1025 8.73031 41.0275 8.45118 40.8975 8.19638C40.7673 7.94148 40.5845 7.71633 40.3613 7.53623C39.8315 7.14444 39.1806 6.94921 38.5215 6.98447C37.9119 6.94568 37.3045 7.09407 36.7822 7.40928C36.5939 7.53106 36.4396 7.69834 36.334 7.8956C36.2283 8.09303 36.1742 8.3145 36.1777 8.53818C36.1745 8.71232 36.209 8.88511 36.2783 9.04502C36.3478 9.20511 36.4512 9.34879 36.5811 9.46592C36.8653 9.72613 37.1995 9.92644 37.5635 10.0548C37.95 10.1963 38.5216 10.3759 39.2773 10.5938C40.1228 10.8073 40.9524 11.0798 41.7598 11.4083C42.4035 11.6823 42.9768 12.0977 43.4355 12.6241C43.9292 13.2241 44.1883 13.9818 44.166 14.7569C44.1762 15.5103 43.9467 16.2475 43.5107 16.8634C43.04 17.5091 42.3986 18.0129 41.6582 18.3185C40.7695 18.6871 39.8131 18.8662 38.8506 18.8448C37.8411 18.8625 36.8395 18.6628 35.915 18.2589C35.1034 17.9082 34.396 17.3552 33.8613 16.6534C33.3647 15.9973 33.0828 15.2049 33.0547 14.3839H36.0283C36.054 14.6745 36.1425 14.9559 36.2881 15.2091C36.4338 15.4623 36.6332 15.6815 36.8721 15.8507C37.4293 16.2581 38.1089 16.4662 38.7998 16.4405C39.4583 16.4795 40.113 16.3176 40.6768 15.9767C40.8809 15.8512 41.0501 15.6755 41.167 15.4669C41.2837 15.2585 41.3446 15.0239 41.3447 14.7853C41.3506 14.5412 41.2837 14.3004 41.1514 14.0948C41.0189 13.8892 40.827 13.7274 40.6016 13.631C39.8428 13.2855 39.0546 13.0081 38.2461 12.8028C37.3819 12.5774 36.5314 12.3015 35.7002 11.9757C35.0432 11.7069 34.4604 11.2856 34 10.7472C33.4993 10.1323 33.2431 9.35506 33.2812 8.56455C33.2777 7.83911 33.5074 7.13138 33.9365 6.54502C34.4164 5.90108 35.0661 5.40174 35.8135 5.10263C36.7034 4.73725 37.6596 4.55818 38.6221 4.57627ZM78.707 18.5753H75.9492V4.85263H78.707V18.5753ZM97.3867 4.85263H100.553V7.35068H97.3867V13.9649C97.3868 15.3645 98.0774 16.0508 99.4834 16.0509H101.688V18.5753H99.2891C96.1732 18.5753 94.629 17.0114 94.6289 13.9649V0.00107232H97.3867V4.85263ZM87.2529 4.57627C90.534 4.57627 92.7675 6.96405 92.7676 10.3399V18.5743H90.0098V10.3399C90.0096 8.4188 88.7695 7.07444 86.8672 7.07431C84.8819 7.07431 83.6681 8.41836 83.668 10.3399V18.5743H80.9102L80.9111 4.85068H83.668V6.08603C84.124 5.59603 84.6798 5.2076 85.2979 4.94736C85.9157 4.68723 86.5822 4.56078 87.2529 4.57627ZM52.5918 7.07334C49.9743 7.0744 48.1802 8.94066 48.1797 11.712C48.1797 14.484 49.9722 16.3233 52.5918 16.3233C55.2386 16.3232 57.0029 14.4829 57.0029 11.712C57.0028 8.94127 55.2385 7.0735 52.5918 7.07334ZM76.874 0.187596C77.1247 -0.0619234 77.5315 -0.0628131 77.7822 0.186619L78.7031 1.10459C78.9537 1.35416 78.9538 1.7584 78.7031 2.00791L77.7822 2.9249C77.5315 3.17446 77.1247 3.17446 76.874 2.9249L75.9531 2.00791C75.7024 1.75838 75.7025 1.35416 75.9531 1.10459L76.874 0.187596Z" fill="#171717"/>
</svg>
